<svg width="63" height="84" viewBox="0 0 63 84" fill="none" xmlns="http://www.w3.org/2000/svg">
<path d="M57.75 0C59.1424 0 60.4773 0.55352 61.4619 1.53809C62.4465 2.52265 63 3.85761 63 5.25V78.75C63 80.1424 62.4465 81.4773 61.4619 82.4619C60.4773 83.4465 59.1424 84 57.75 84H5.25C3.85761 84 2.52265 83.4465 1.53809 82.4619C0.55352 81.4773 0 80.1424 0 78.75V5.25C0 3.85761 0.55352 2.52265 1.53809 1.53809C2.52265 0.55352 3.85761 0 5.25 0H57.75ZM5.25 78.75H21V65.625C21 64.9288 21.2763 64.2608 21.7686 63.7686C22.2608 63.2763 22.9288 63 23.625 63H39.375C40.0712 63 40.7392 63.2763 41.2314 63.7686C41.7237 64.2608 42 64.9288 42 65.625V78.75H57.75V5.25H5.25V78.75ZM18.375 42C19.0712 42 19.7392 42.2763 20.2314 42.7686C20.7237 43.2608 21 43.9288 21 44.625V49.875C21 50.5712 20.7237 51.2392 20.2314 51.7314C19.7392 52.2237 19.0712 52.5 18.375 52.5H13.125C12.4288 52.5 11.7608 52.2237 11.2686 51.7314C10.7763 51.2392 10.5 50.5712 10.5 49.875V44.625C10.5 43.9288 10.7763 43.2608 11.2686 42.7686C11.7608 42.2763 12.4288 42 13.125 42H18.375ZM34.125 42C34.8212 42 35.4892 42.2763 35.9814 42.7686C36.4737 43.2608 36.75 43.9288 36.75 44.625V49.875C36.75 50.5712 36.4737 51.2392 35.9814 51.7314C35.4892 52.2237 34.8212 52.5 34.125 52.5H28.875C28.1788 52.5 27.5108 52.2237 27.0186 51.7314C26.5263 51.2392 26.25 50.5712 26.25 49.875V44.625C26.25 43.9288 26.5263 43.2608 27.0186 42.7686C27.5108 42.2763 28.1788 42 28.875 42H34.125ZM49.875 42C50.5712 42 51.2392 42.2763 51.7314 42.7686C52.2237 43.2608 52.5 43.9288 52.5 44.625V49.875C52.5 50.5712 52.2237 51.2392 51.7314 51.7314C51.2392 52.2237 50.5712 52.5 49.875 52.5H44.625C43.9288 52.5 43.2608 52.2237 42.7686 51.7314C42.2763 51.2392 42 50.5712 42 49.875V44.625C42 43.9288 42.2763 43.2608 42.7686 42.7686C43.2608 42.2763 43.9288 42 44.625 42H49.875ZM18.375 26.25C19.0712 26.25 19.7392 26.5263 20.2314 27.0186C20.7237 27.5108 21 28.1788 21 28.875V34.125C21 34.8212 20.7237 35.4892 20.2314 35.9814C19.7392 36.4737 19.0712 36.75 18.375 36.75H13.125C12.4288 36.75 11.7608 36.4737 11.2686 35.9814C10.7763 35.4892 10.5 34.8212 10.5 34.125V28.875C10.5 28.1788 10.7763 27.5108 11.2686 27.0186C11.7608 26.5263 12.4288 26.25 13.125 26.25H18.375ZM34.125 26.25C34.8212 26.25 35.4892 26.5263 35.9814 27.0186C36.4737 27.5108 36.75 28.1788 36.75 28.875V34.125C36.75 34.8212 36.4737 35.4892 35.9814 35.9814C35.4892 36.4737 34.8212 36.75 34.125 36.75H28.875C28.1788 36.75 27.5108 36.4737 27.0186 35.9814C26.5263 35.4892 26.25 34.8212 26.25 34.125V28.875C26.25 28.1788 26.5263 27.5108 27.0186 27.0186C27.5108 26.5263 28.1788 26.25 28.875 26.25H34.125ZM49.875 26.25C50.5712 26.25 51.2392 26.5263 51.7314 27.0186C52.2237 27.5108 52.5 28.1788 52.5 28.875V34.125C52.5 34.8212 52.2237 35.4892 51.7314 35.9814C51.2392 36.4737 50.5712 36.75 49.875 36.75H44.625C43.9288 36.75 43.2608 36.4737 42.7686 35.9814C42.2763 35.4892 42 34.8212 42 34.125V28.875C42 28.1788 42.2763 27.5108 42.7686 27.0186C43.2608 26.5263 43.9288 26.25 44.625 26.25H49.875ZM18.375 10.5C19.0712 10.5 19.7392 10.7763 20.2314 11.2686C20.7237 11.7608 21 12.4288 21 13.125V18.375C21 19.0712 20.7237 19.7392 20.2314 20.2314C19.7392 20.7237 19.0712 21 18.375 21H13.125C12.4288 21 11.7608 20.7237 11.2686 20.2314C10.7763 19.7392 10.5 19.0712 10.5 18.375V13.125C10.5 12.4288 10.7763 11.7608 11.2686 11.2686C11.7608 10.7763 12.4288 10.5 13.125 10.5H18.375ZM34.125 10.5C34.8212 10.5 35.4892 10.7763 35.9814 11.2686C36.4737 11.7608 36.75 12.4288 36.75 13.125V18.375C36.75 19.0712 36.4737 19.7392 35.9814 20.2314C35.4892 20.7237 34.8212 21 34.125 21H28.875C28.1788 21 27.5108 20.7237 27.0186 20.2314C26.5263 19.7392 26.25 19.0712 26.25 18.375V13.125C26.25 12.4288 26.5263 11.7608 27.0186 11.2686C27.5108 10.7763 28.1788 10.5 28.875 10.5H34.125ZM49.875 10.5C50.5712 10.5 51.2392 10.7763 51.7314 11.2686C52.2237 11.7608 52.5 12.4288 52.5 13.125V18.375C52.5 19.0712 52.2237 19.7392 51.7314 20.2314C51.2392 20.7237 50.5712 21 49.875 21H44.625C43.9288 21 43.2608 20.7237 42.7686 20.2314C42.2763 19.7392 42 19.0712 42 18.375V13.125C42 12.4288 42.2763 11.7608 42.7686 11.2686C43.2608 10.7763 43.9288 10.5 44.625 10.5H49.875Z" fill="url(#paint0_linear_503_57)"/>
<defs>
<linearGradient id="paint0_linear_503_57" x1="31.2308" y1="-67.8462" x2="31.2308" y2="163.692" gradientUnits="userSpaceOnUse">
<stop stop-color="#B9B7C7"/>
<stop offset="1" stop-color="#E2E283"/>
</linearGradient>
</defs>
</svg>
