<svg width="74" height="74" viewBox="0 0 74 74" fill="none" xmlns="http://www.w3.org/2000/svg">
<path d="M28.5166 70.2295C28.5165 72.3111 26.8277 73.9999 24.7461 74C22.6644 74 20.9757 72.3111 20.9756 70.2295V64.1416H28.5166V70.2295ZM40.7725 70.2295C40.7723 72.311 39.0834 73.9997 37.002 74C34.9203 74 33.2306 72.3111 33.2305 70.2295V64.1416H40.7725V70.2295ZM53.0342 70.2295C53.0341 72.3111 51.3444 74 49.2627 74C47.1812 73.9998 45.4923 72.311 45.4922 70.2295H45.5V64.1416H53.0342V70.2295ZM56.5908 13.4805C58.759 13.4805 60.5195 15.2401 60.5195 17.4082V56.5918C60.5194 58.7598 58.7589 60.5195 56.5908 60.5195H17.4072C15.2391 60.5195 13.4796 58.7598 13.4795 56.5918V17.4082C13.4795 15.2401 15.2391 13.4805 17.4072 13.4805H56.5908ZM9.85938 53.0254H3.77051C1.68897 53.0253 0.000185515 51.3364 0 49.2549C0 47.1732 1.68885 45.4923 3.77051 45.4922H9.85938V53.0254ZM70.2295 45.4922C72.3111 45.4923 74 47.1732 74 49.2549C73.9998 51.3364 72.311 53.0252 70.2295 53.0254H64.1406V45.4922H70.2295ZM9.85938 40.7705H3.77051C1.68885 40.7704 0 39.0817 0 37C1.61194e-06 34.9183 1.68885 33.2296 3.77051 33.2295H9.85938V40.7705ZM70.2295 33.2295C72.3111 33.2296 74 34.9184 74 37C74 39.0816 72.3111 40.7704 70.2295 40.7705H64.1406V33.2295H70.2295ZM9.85938 28.5166H3.77051C1.68885 28.5165 0 26.8268 0 24.7451C0.000226488 22.6637 1.68899 20.9747 3.77051 20.9746H9.85938V28.5166ZM70.2295 20.9746C72.311 20.9748 73.9998 22.6558 74 24.7373C74 26.8189 72.3111 28.5086 70.2295 28.5088H64.1406V20.9746H70.2295ZM24.7383 0C26.8199 0.000146572 28.5087 1.68895 28.5088 3.77051V9.8584H20.9756V3.77051C20.9757 1.68886 22.6566 0 24.7383 0ZM37.002 0C39.0834 0.000251883 40.7724 1.68901 40.7725 3.77051V9.8584H33.2305V3.77051C33.2306 1.68886 34.9203 0 37.002 0ZM49.2549 0C51.3366 0 53.0263 1.68886 53.0264 3.77051V9.8584H45.4922V3.77051C45.4923 1.68896 47.1733 0.00016954 49.2549 0Z" fill="url(#paint0_linear_503_38)"/>
<defs>
<linearGradient id="paint0_linear_503_38" x1="85.1507" y1="-25.3425" x2="1.447e-06" y2="91.7397" gradientUnits="userSpaceOnUse">
<stop stop-color="#FF7D66"/>
<stop offset="1" stop-color="#FF2E5D"/>
</linearGradient>
</defs>
</svg>
