<svg width="32" height="32" viewBox="0 0 32 32" fill="none" xmlns="http://www.w3.org/2000/svg">
<path fill-rule="evenodd" clip-rule="evenodd" d="M9.33366 3.66699C7.18037 3.66699 5.23319 4.20517 3.81987 5.51753C2.39315 6.84235 1.66699 8.80973 1.66699 11.3337V20.667C1.66699 23.191 2.39315 25.1583 3.81987 26.4831C5.23319 27.7955 7.18037 28.3337 9.33366 28.3337H22.667C24.8203 28.3337 26.7675 27.7955 28.1807 26.4831C29.6075 25.1583 30.3337 23.191 30.3337 20.667V11.3337C30.3337 8.80973 29.6075 6.84235 28.1807 5.51753C26.7675 4.20517 24.8203 3.66699 22.667 3.66699H9.33366ZM25.6383 11.1501C26.0753 10.8124 26.1558 10.1844 25.8181 9.74734C25.4805 9.31031 24.8525 9.22979 24.4154 9.56749L17.0193 15.2825C16.4191 15.7463 15.5814 15.7463 14.9811 15.2825L7.58513 9.56749C7.1481 9.22979 6.52009 9.31031 6.18239 9.74734C5.8447 10.1844 5.92522 10.8124 6.36225 11.1501L13.7583 16.8651C15.0789 17.8854 16.9217 17.8854 18.2422 16.8651L25.6383 11.1501Z" fill="#F2F2F2"/>
</svg>
