<svg width="107" height="80" viewBox="0 0 107 80" fill="none" xmlns="http://www.w3.org/2000/svg">
<path d="M98.4346 77.6715C100.854 76.4626 102.914 74.6397 104.408 72.3856C105.901 70.1316 106.775 67.5257 106.943 64.8292C107.111 62.1328 106.566 59.4406 105.363 57.0228C104.16 54.6049 102.341 52.5464 100.09 51.0537C97.8378 49.561 95.2319 48.6866 92.5333 48.5182C89.8347 48.3497 87.1383 48.8932 84.7145 50.0941C82.2907 51.295 80.2248 53.111 78.7239 55.3601C77.223 57.6092 76.34 60.2122 76.1634 62.9081C69.648 65.5507 66.0257 62.5758 57.652 51.9872C54.9469 48.5616 52.1783 45.0575 48.9751 42.1448L76.1806 28.5378C79.0125 30.4042 82.383 31.2842 85.7693 31.0411C89.1556 30.7981 92.3685 29.4456 94.9096 27.1936C97.4508 24.9415 99.1782 21.9157 99.8239 18.5853C100.47 15.255 99.9976 11.8064 98.481 8.77419C96.9645 5.74202 94.4881 3.29581 91.4361 1.81497C88.384 0.334119 84.9268 -0.098612 81.6007 0.583887C78.2745 1.26639 75.2653 3.02597 73.0397 5.58975C70.8141 8.15352 69.4965 11.3782 69.2913 14.7637L24.1889 37.3219C21.361 35.4584 17.9961 34.5785 14.6146 34.8183C11.233 35.058 8.02334 36.404 5.48185 38.6481C2.94037 40.8922 1.20871 43.9094 0.554701 47.233C-0.099308 50.5566 0.360769 54.0015 1.86378 57.0348C3.36679 60.0681 5.82898 62.5209 8.86956 64.0138C11.9101 65.5067 15.3597 65.9565 18.6847 65.2936C22.0097 64.6308 25.0249 62.8923 27.264 60.3469C29.5031 57.8016 30.8413 54.5912 31.0716 51.2124C35.2092 49.786 38.0388 52.0326 45.5381 61.5357C49.7131 66.8279 54.0302 72.2965 59.9357 75.8003C67.0627 80.0385 74.8136 80.3403 83.0106 76.7329C85.2698 78.2313 87.8856 79.1071 90.5937 79.2718C93.3019 79.4366 96.0066 78.8846 98.4346 77.6715ZM91.5728 12.224C92.2541 13.5861 92.5155 15.12 92.324 16.6317C92.1324 18.1434 91.4966 19.565 90.4968 20.7167C89.497 21.8685 88.1781 22.6986 86.7071 23.1021C85.236 23.5057 83.6788 23.4645 82.2323 22.9839C80.7858 22.5032 79.515 21.6047 78.5806 20.4018C77.6463 19.199 77.0903 17.7459 76.983 16.2263C76.8757 14.7067 77.2219 13.1889 77.9778 11.8647C78.7338 10.5405 79.8655 9.46956 81.2298 8.78716C83.0594 7.87209 85.1769 7.72011 87.1166 8.36464C89.0563 9.00917 90.6593 10.3974 91.5728 12.224ZM8.79233 53.6271C8.11105 52.265 7.84965 50.7311 8.04119 49.2194C8.23273 47.7077 8.8686 46.2861 9.8684 45.1344C10.8682 43.9827 12.187 43.1526 13.6581 42.749C15.1291 42.3455 16.6864 42.3866 18.1329 42.8673C19.5794 43.3479 20.8502 44.2465 21.7845 45.4493C22.7189 46.6521 23.2749 48.1052 23.3822 49.6248C23.4895 51.1444 23.1433 52.6623 22.3873 53.9864C21.6314 55.3106 20.4997 56.3816 19.1353 57.064C17.3058 57.979 15.1882 58.131 13.2485 57.4865C11.3088 56.842 9.7059 55.4537 8.79233 53.6271ZM84.647 67.3476C83.9658 65.9854 83.7044 64.4515 83.8959 62.9398C84.0874 61.4281 84.7233 60.0065 85.7231 58.8548C86.7229 57.7031 88.0417 56.873 89.5128 56.4694C90.9839 56.0659 92.5411 56.1071 93.9876 56.5877C95.4341 57.0684 96.7049 57.9669 97.6392 59.1697C98.5736 60.3726 99.1296 61.8257 99.2369 63.3453C99.3442 64.8649 98.998 66.3827 98.242 67.7069C97.4861 69.031 96.3544 70.102 94.99 70.7844C93.1605 71.6995 91.0429 71.8514 89.1032 71.2069C87.1636 70.5624 85.5606 69.1741 84.647 67.3476Z" fill="url(#paint0_linear_503_18)"/>
<defs>
<linearGradient id="paint0_linear_503_18" x1="-155" y1="95.5" x2="168.5" y2="9.00001" gradientUnits="userSpaceOnUse">
<stop stop-color="#1A80FF"/>
<stop offset="1" stop-color="#1ACCFF"/>
</linearGradient>
</defs>
</svg>
