<svg width="102" height="86" viewBox="0 0 102 86" fill="none" xmlns="http://www.w3.org/2000/svg">
<path d="M96.1563 51.9195C99.875 50.8545 102 47.1269 102 43.3994C102 39.6718 99.875 36.4768 96.1563 34.8793L93.5 33.8142L96.1563 32.7492C99.875 31.6842 102 27.9567 102 24.2291C102 20.5015 99.875 17.3065 96.1563 15.709L54.1875 0.798762C52.0625 -0.266254 49.9375 -0.266254 47.8125 0.798762L5.3125 15.709C2.125 17.3065 0 21.0341 0 24.7616C0 28.4892 2.125 31.6842 5.84375 33.2817L8.5 33.8142L5.84375 34.8793C2.125 35.9443 0 39.6718 0 43.3994C0 47.1269 2.125 50.322 5.84375 51.9195L8.5 52.9845L5.84375 54.0495C2.125 55.1146 0 58.8421 0 62.5697C0 66.2972 2.125 69.4923 5.84375 71.0898L47.8125 86C48.875 86 49.9375 86 51 86C52.0625 86 53.125 86 53.6563 85.4675L96.1563 70.5573C99.875 69.4923 102 65.7647 102 62.0372C102 58.3096 99.875 55.1145 96.1563 53.517L93.5 52.9845L96.1563 51.9195ZM51 11.4489L88.1875 24.7616L51 38.0743L13.8125 24.7616L51 11.4489ZM51 75.3498L13.8125 62.0372L24.4375 58.3096L47.8125 66.2972C48.3438 66.2972 48.875 66.8297 49.4062 66.8297H49.9375C50.4687 66.8297 51 66.8297 51 66.8297C52.0625 66.8297 53.125 66.8297 53.6563 66.2972L77.0312 57.7771L87.6562 61.5046L51 75.3498ZM51 56.7121L13.8125 43.3994L24.4375 39.6718L47.8125 47.6594C48.3438 47.6594 48.875 48.1919 49.4062 48.1919H49.9375C50.4687 48.1919 51 48.1919 51 48.1919C52.0625 48.1919 53.125 48.192 53.6563 47.6594L77.0312 39.1393L87.6562 42.8669L51 56.7121Z" fill="url(#paint0_linear_503_36)"/>
<defs>
<linearGradient id="paint0_linear_503_36" x1="63" y1="-5.5" x2="12" y2="93" gradientUnits="userSpaceOnUse">
<stop stop-color="#A8E063"/>
<stop offset="1" stop-color="#56AB2F"/>
</linearGradient>
</defs>
</svg>
