<svg width="77" height="77" viewBox="0 0 77 77" fill="none" xmlns="http://www.w3.org/2000/svg">
<path d="M30.0361 30.0371C30.7769 29.4815 31.6936 29.2118 32.6172 29.2773C33.5409 29.343 34.4106 29.7397 35.0654 30.3945C35.72 31.0493 36.116 31.9183 36.1816 32.8418C36.2473 33.7654 35.9784 34.6821 35.4229 35.4229L28.8828 41.9629L35.0381 48.1182L41.5771 41.5781C42.3179 41.0226 43.2346 40.7528 44.1582 40.8184C45.0819 40.884 45.9516 41.2807 46.6064 41.9355C47.2611 42.5903 47.6579 43.4593 47.7236 44.3828C47.7893 45.3064 47.5193 46.2231 46.9639 46.9639L40.4238 53.5039L43.501 56.582C43.8895 56.9102 44.1962 57.3246 44.3965 57.792C44.5967 58.2594 44.6855 58.7669 44.6553 59.2744C44.6408 60.2891 44.2258 61.2575 43.501 61.9678L37.7305 67.7383C34.0772 71.3034 29.1778 73.3044 24.0732 73.3164C20.0009 73.3177 16.0308 72.0387 12.7246 69.6611L6.56934 75.8164C6.22702 76.1895 5.81117 76.4876 5.34766 76.6914C4.88413 76.8952 4.38329 77.001 3.87695 77.001C3.37061 77.001 2.86978 76.8952 2.40625 76.6914C1.94268 76.4876 1.52595 76.1895 1.18359 75.8164C0.810637 75.4741 0.512324 75.0581 0.308594 74.5947C0.104863 74.1312 1.58506e-05 73.6303 0 73.124C0 72.6178 0.104903 72.1168 0.308594 71.6533C0.512392 71.1897 0.810463 70.773 1.18359 70.4307L7.53125 64.083C5.21667 60.9748 3.99917 57.1863 4.06934 53.3115C4.084 50.7958 4.60182 48.3085 5.59277 45.9961C6.58383 43.6836 8.02813 41.5924 9.83984 39.8467L15.6104 34.0762C15.9527 33.7032 16.3686 33.4049 16.832 33.2012C17.2955 32.9974 17.7965 32.8926 18.3027 32.8926C18.8091 32.8926 19.3108 32.9974 19.7744 33.2012C20.2378 33.405 20.6538 33.7031 20.9961 34.0762L23.4971 36.5771L30.0361 30.0371ZM73.124 0C73.6303 5.20112e-07 74.1312 0.104872 74.5947 0.308594C75.0583 0.512393 75.475 0.810461 75.8174 1.18359C76.1905 1.52593 76.4876 1.94272 76.6914 2.40625C76.8952 2.8698 77.001 3.37059 77.001 3.87695C77.001 4.3833 76.8952 4.88412 76.6914 5.34766C76.4877 5.81099 76.1903 6.22709 75.8174 6.56934L69.2773 13.3018C71.2733 16.4706 72.3391 20.1368 72.3545 23.8818C72.3797 26.4147 71.8992 28.9275 70.9414 31.2725C69.9836 33.6173 68.5676 35.7473 66.7764 37.5381L61.0059 43.1162C60.6636 43.4892 60.2476 43.7874 59.7842 43.9912C59.3206 44.195 58.8189 44.3008 58.3125 44.3008C57.8063 44.3007 57.3052 44.1949 56.8418 43.9912C56.3784 43.7874 55.9624 43.4892 55.6201 43.1162L33.1152 20.6113C32.7267 20.2831 32.4201 19.8688 32.2197 19.4014C32.0194 18.934 31.9307 18.4265 31.9609 17.9189C31.9754 16.9042 32.3904 15.9359 33.1152 15.2256L38.8857 9.45508C42.1587 6.22535 46.4802 4.27467 51.0674 3.95703C55.6547 3.63945 60.2047 4.97564 63.8916 7.72363L70.4307 1.18359C70.773 0.810461 71.1897 0.512393 71.6533 0.308594C72.1168 0.104873 72.6177 0 73.124 0Z" fill="url(#paint0_linear_503_19)"/>
<defs>
<linearGradient id="paint0_linear_503_19" x1="173" y1="-98.5" x2="-55" y2="133" gradientUnits="userSpaceOnUse">
<stop stop-color="#FDD04E"/>
<stop offset="1" stop-color="#F47D43"/>
</linearGradient>
</defs>
</svg>
