<svg width="74" height="96" viewBox="0 0 74 96" fill="none" xmlns="http://www.w3.org/2000/svg">
<path d="M42.8686 12H6.23293C2.79054 12 0 14.7908 0 18.2329V89.2996C0 92.7419 2.79083 95.5325 6.23293 95.5325H55.7671C59.2095 95.5325 62 92.7417 62 89.2996V31.1314L42.8686 12Z" fill="url(#paint0_linear_503_22)"/>
<path d="M51.5509 48.3115H10.0996V51.3231H51.5509V48.3115Z" fill="black"/>
<path d="M51.5509 55.7539H10.0996V58.7655H51.5509V55.7539Z" fill="black"/>
<path d="M51.5509 64.1279H10.0996V67.1395H51.5509V64.1279Z" fill="black"/>
<path d="M31.711 71.9248H10.0996V74.9363H31.711V71.9248Z" fill="black"/>
<path d="M49.1018 31.1311H62.0002L42.8691 12V24.8985C42.8688 28.3406 45.6594 31.1311 49.1018 31.1311Z" fill="#353737"/>
<path fill-rule="evenodd" clip-rule="evenodd" d="M58.9995 4.5C59.1624 4.50003 59.3209 4.55315 59.451 4.6513C59.5811 4.74945 59.6757 4.8873 59.7205 5.044L60.5335 7.89C60.7085 8.50292 61.0369 9.0611 61.4876 9.51183C61.9384 9.96255 62.4965 10.291 63.1095 10.466L65.9555 11.279C66.1121 11.3239 66.2498 11.4185 66.3478 11.5486C66.4459 11.6786 66.4989 11.8371 66.4989 12C66.4989 12.1629 66.4459 12.3214 66.3478 12.4514C66.2498 12.5815 66.1121 12.6761 65.9555 12.721L63.1095 13.534C62.4965 13.709 61.9384 14.0374 61.4876 14.4882C61.0369 14.9389 60.7085 15.4971 60.5335 16.11L59.7205 18.956C59.6756 19.1126 59.581 19.2503 59.4509 19.3484C59.3208 19.4464 59.1624 19.4995 58.9995 19.4995C58.8366 19.4995 58.6781 19.4464 58.548 19.3484C58.4179 19.2503 58.3233 19.1126 58.2785 18.956L57.4655 16.11C57.2904 15.4971 56.962 14.9389 56.5113 14.4882C56.0606 14.0374 55.5024 13.709 54.8895 13.534L52.0435 12.721C51.8869 12.6761 51.7491 12.5815 51.6511 12.4514C51.553 12.3214 51.5 12.1629 51.5 12C51.5 11.8371 51.553 11.6786 51.6511 11.5486C51.7491 11.4185 51.8869 11.3239 52.0435 11.279L54.8895 10.466C55.5024 10.291 56.0606 9.96255 56.5113 9.51183C56.962 9.0611 57.2904 8.50292 57.4655 7.89L58.2785 5.044C58.3232 4.8873 58.4178 4.74945 58.5479 4.6513C58.678 4.55315 58.8365 4.50003 58.9995 4.5ZM67.9995 1.5C68.1668 1.49991 68.3293 1.55576 68.4612 1.65869C68.5931 1.76161 68.6869 1.90569 68.7275 2.068L68.9855 3.104C69.2215 4.044 69.9555 4.778 70.8955 5.014L71.9315 5.272C72.0941 5.31228 72.2385 5.40586 72.3418 5.5378C72.445 5.66974 72.5011 5.83246 72.5011 6C72.5011 6.16754 72.445 6.33026 72.3418 6.4622C72.2385 6.59414 72.0941 6.68772 71.9315 6.728L70.8955 6.986C69.9555 7.222 69.2215 7.956 68.9855 8.896L68.7275 9.932C68.6872 10.0946 68.5936 10.2391 68.4617 10.3423C68.3297 10.4456 68.167 10.5017 67.9995 10.5017C67.8319 10.5017 67.6692 10.4456 67.5373 10.3423C67.4053 10.2391 67.3117 10.0946 67.2715 9.932L67.0135 8.896C66.8981 8.43443 66.6594 8.0129 66.323 7.67648C65.9866 7.34005 65.565 7.10139 65.1035 6.986L64.0675 6.728C63.9048 6.68772 63.7604 6.59414 63.6571 6.4622C63.5539 6.33026 63.4978 6.16754 63.4978 6C63.4978 5.83246 63.5539 5.66974 63.6571 5.5378C63.7604 5.40586 63.9048 5.31228 64.0675 5.272L65.1035 5.014C65.565 4.89861 65.9866 4.65995 66.323 4.32352C66.6594 3.9871 66.8981 3.56557 67.0135 3.104L67.2715 2.068C67.3121 1.90569 67.4058 1.76161 67.5377 1.65869C67.6696 1.55576 67.8321 1.49991 67.9995 1.5ZM66.4995 15C66.657 14.9999 66.8105 15.0494 66.9383 15.1415C67.0661 15.2336 67.1617 15.3636 67.2115 15.513L67.6055 16.696C67.7555 17.143 68.1055 17.495 68.5535 17.644L69.7365 18.039C69.8854 18.089 70.0149 18.1845 70.1067 18.3121C70.1984 18.4397 70.2478 18.5929 70.2478 18.75C70.2478 18.9071 70.1984 19.0603 70.1067 19.1879C70.0149 19.3155 69.8854 19.411 69.7365 19.461L68.5535 19.856C68.1065 20.006 67.7545 20.356 67.6055 20.804L67.2105 21.987C67.1604 22.136 67.0649 22.2655 66.9373 22.3572C66.8098 22.4489 66.6566 22.4983 66.4995 22.4983C66.3423 22.4983 66.1892 22.4489 66.0616 22.3572C65.934 22.2655 65.8385 22.136 65.7885 21.987L65.3935 20.804C65.3198 20.5833 65.1958 20.3827 65.0313 20.2182C64.8667 20.0537 64.6662 19.9297 64.4455 19.856L63.2625 19.461C63.1135 19.411 62.984 19.3155 62.8923 19.1879C62.8005 19.0603 62.7512 18.9071 62.7512 18.75C62.7512 18.5929 62.8005 18.4397 62.8923 18.3121C62.984 18.1845 63.1135 18.089 63.2625 18.039L64.4455 17.644C64.8925 17.494 65.2445 17.144 65.3935 16.696L65.7885 15.513C65.8382 15.3637 65.9336 15.2339 66.0612 15.1418C66.1888 15.0497 66.3421 15.0001 66.4995 15Z" fill="url(#paint1_linear_503_22)"/>
<defs>
<linearGradient id="paint0_linear_503_22" x1="31" y1="-74" x2="31" y2="158.5" gradientUnits="userSpaceOnUse">
<stop stop-color="#EA4DFF"/>
<stop offset="1" stop-color="#9933FF"/>
</linearGradient>
<linearGradient id="paint1_linear_503_22" x1="62.0006" y1="1.5" x2="62.0006" y2="22.4983" gradientUnits="userSpaceOnUse">
<stop stop-color="#F3F9A7"/>
<stop offset="1" stop-color="#CAC531"/>
</linearGradient>
</defs>
</svg>
