<svg width="152" height="106" viewBox="0 0 152 106" fill="none" xmlns="http://www.w3.org/2000/svg">
<path d="M19.2855 73.7876C7.95717 80.0816 0 103.741 0 103.741C0 103.741 24.9185 105.204 34.9904 97.0489C40.6592 92.4877 42.2188 84.0973 38.0706 78.0368C36.0135 75.1379 32.9583 73.1009 29.4913 72.3167C26.0244 71.5325 22.3899 72.0563 19.2855 73.7876Z" fill="url(#paint0_linear_505_109)"/>
<path d="M69.884 73.4943L54.179 50.233C59.3736 41.9372 65.3918 34.1865 72.1422 27.0988C82.0555 16.467 94.5239 8.54815 108.362 4.09556C122.199 -0.357036 136.946 -1.19534 151.199 1.66037C147.773 19.3252 136.688 49.3862 98.38 65.5428C89.171 69.1394 79.6246 71.8032 69.884 73.4943Z" fill="url(#paint1_linear_505_109)"/>
<path d="M54.1788 50.2307L21.7072 43.934C21.7072 43.934 29.0949 24.9486 39.7333 20.475C51.6142 15.5012 72.2049 26.7718 72.2049 26.7718" fill="url(#paint2_linear_505_109)"/>
<path d="M69.8812 73.4924L63.5844 105.964C63.5844 105.964 83.9549 106.208 92.0804 98.013C101.134 88.8522 98.3772 65.541 98.3772 65.541" fill="url(#paint3_linear_505_109)"/>
<defs>
<linearGradient id="paint0_linear_505_109" x1="151.5" y1="1.5" x2="14.5627" y2="129.041" gradientUnits="userSpaceOnUse">
<stop stop-color="#12C2E9"/>
<stop offset="0.5" stop-color="#C471ED"/>
<stop offset="1" stop-color="#F64F59"/>
</linearGradient>
<linearGradient id="paint1_linear_505_109" x1="151.5" y1="1.5" x2="14.5627" y2="129.041" gradientUnits="userSpaceOnUse">
<stop stop-color="#12C2E9"/>
<stop offset="0.5" stop-color="#C471ED"/>
<stop offset="1" stop-color="#F64F59"/>
</linearGradient>
<linearGradient id="paint2_linear_505_109" x1="151.5" y1="1.5" x2="14.5627" y2="129.041" gradientUnits="userSpaceOnUse">
<stop stop-color="#12C2E9"/>
<stop offset="0.5" stop-color="#C471ED"/>
<stop offset="1" stop-color="#F64F59"/>
</linearGradient>
<linearGradient id="paint3_linear_505_109" x1="151.5" y1="1.5" x2="14.5627" y2="129.041" gradientUnits="userSpaceOnUse">
<stop stop-color="#12C2E9"/>
<stop offset="0.5" stop-color="#C471ED"/>
<stop offset="1" stop-color="#F64F59"/>
</linearGradient>
</defs>
</svg>
