<svg width="71" height="74" viewBox="0 0 71 74" fill="none" xmlns="http://www.w3.org/2000/svg">
<path fill-rule="evenodd" clip-rule="evenodd" d="M37.3788 0.755208C36.8715 0.270295 36.1991 0 35.5 0C34.801 0 34.1285 0.270295 33.6212 0.755208C25.8923 8.15571 15.5986 12.2139 4.94089 12.0622C4.36028 12.0546 3.79237 12.2338 3.31964 12.5738C2.84691 12.9138 2.49397 13.3968 2.31207 13.9528C0.775464 18.6745 -0.00500737 23.6128 2.41732e-05 28.5822C2.41732e-05 50.3958 14.7971 68.7183 34.8191 73.9129C35.2658 74.029 35.7343 74.029 36.1809 73.9129C56.2029 68.7183 71 50.3958 71 28.5822C71 23.4793 70.188 18.5601 68.6879 13.9528C68.5067 13.3961 68.154 12.9123 67.6812 12.5716C67.2084 12.2309 66.6402 12.0512 66.0591 12.0585L65.5385 12.0622C54.63 12.0622 44.7227 7.76701 37.3788 0.755208ZM48.6441 30.1828C48.8626 29.8893 49.0206 29.5547 49.109 29.1987C49.1974 28.8427 49.2143 28.4725 49.1588 28.1099C49.1032 27.7472 48.9763 27.3994 48.7856 27.0869C48.5948 26.7744 48.344 26.5035 48.0479 26.2901C47.7518 26.0767 47.4164 25.9252 47.0614 25.8444C46.7064 25.7635 46.3389 25.7551 45.9806 25.8195C45.6223 25.8839 45.2804 26.0199 44.975 26.2195C44.6695 26.419 44.4068 26.6781 44.2021 26.9816L32.4197 43.6117L26.5067 37.6498C25.989 37.1634 25.3043 36.8987 24.5969 36.9112C23.8894 36.9238 23.2144 37.2128 22.7141 37.7173C22.2138 38.2217 21.9272 38.9023 21.9147 39.6156C21.9022 40.3289 22.1648 41.0192 22.6472 41.5412L30.8395 49.8011C31.1198 50.0836 31.4577 50.3011 31.8298 50.4386C32.2019 50.5761 32.5992 50.6303 32.9941 50.5975C33.3891 50.5647 33.7722 50.4456 34.1169 50.2485C34.4616 50.0513 34.7596 49.7809 34.9903 49.456L48.6441 30.1828Z" fill="url(#paint0_linear_503_37)"/>
<defs>
<linearGradient id="paint0_linear_503_37" x1="36" y1="-48" x2="36" y2="90.5" gradientUnits="userSpaceOnUse">
<stop stop-color="#F3F9A7"/>
<stop offset="1" stop-color="#CAC531"/>
</linearGradient>
</defs>
</svg>
