<svg width="119" height="132" viewBox="0 0 119 132" fill="none" xmlns="http://www.w3.org/2000/svg">
<path d="M6.63114 79.1966C5.38056 79.2008 4.15444 78.8507 3.09523 78.1869C2.03602 77.5231 1.1872 76.5728 0.64738 75.4465C0.107563 74.3202 -0.10109 73.064 0.0456636 71.824C0.192418 70.584 0.688554 69.411 1.47643 68.4414L66.9016 1.13889C67.3924 0.573297 68.0612 0.191091 68.7982 0.0550108C69.5352 -0.0810694 70.2966 0.0370614 70.9575 0.390014C71.6184 0.742966 72.1395 1.30977 72.4353 1.99738C72.731 2.685 72.7838 3.45257 72.585 4.1741L59.8965 43.8958C59.5224 44.8956 59.3967 45.971 59.5303 47.03C59.664 48.0889 60.0529 49.0997 60.6637 49.9756C61.2745 50.8515 62.0891 51.5664 63.0374 52.0589C63.9858 52.5514 65.0396 52.8069 66.1086 52.8034H112.369C113.619 52.7992 114.846 53.1493 115.905 53.8131C116.964 54.4769 117.813 55.4272 118.353 56.5535C118.892 57.6798 119.101 58.936 118.954 60.176C118.808 61.416 118.311 62.589 117.524 63.5586L52.0984 130.861C51.6076 131.427 50.9388 131.809 50.2018 131.945C49.4648 132.081 48.7034 131.963 48.0425 131.61C47.3816 131.257 46.8605 130.69 46.5647 130.003C46.269 129.315 46.2162 128.547 46.415 127.826L59.1035 88.1042C59.4776 87.1044 59.6033 86.029 59.4697 84.97C59.336 83.9111 58.9471 82.9003 58.3363 82.0244C57.7255 81.1485 56.9109 80.4336 55.9626 79.9411C55.0142 79.4486 53.9604 79.1931 52.8914 79.1966H6.63114Z" fill="url(#paint0_linear_505_104)"/>
<defs>
<linearGradient id="paint0_linear_505_104" x1="73" y1="-1.5" x2="-12.4726" y2="124.314" gradientUnits="userSpaceOnUse">
<stop stop-color="#F27121"/>
<stop offset="0.5" stop-color="#E94057"/>
<stop offset="1" stop-color="#8A2387"/>
</linearGradient>
</defs>
</svg>
